<svg width="48" height="40" viewBox="0 0 48 40" fill="none" xmlns="http://www.w3.org/2000/svg">
<g clip-path="url(#clip0_620_108)">
<mask id="mask0_620_108" style="mask-type:luminance" maskUnits="userSpaceOnUse" x="0" y="3" width="48" height="37">
<path d="M0.132935 3.02478H47.5319V39.4989H0.132935V3.02478Z" fill="white"/>
</mask>
<g mask="url(#mask0_620_108)">
<path d="M38.8085 20.8281C35.109 20.8281 32.0797 18.903 30.0345 17.0728C29.8909 16.8803 29.742 16.6931 29.5824 16.5138C29.2579 16.1577 28.9016 15.8386 28.5159 15.5591C28.2393 15.2532 28.0026 14.9737 27.8085 14.7311C29.3537 13.8344 32.6489 12.2179 36.3111 12.2179C40.3803 12.2179 43.7872 14.2063 46.4441 18.1356C43.8936 19.9236 41.3271 20.8281 38.8085 20.8281ZM34.9946 25.2664C32.718 23.7896 31.7712 21.2685 31.3803 19.4515C33.3643 20.7833 35.8563 21.8592 38.7393 21.8777C39.5585 23.1303 39.9946 24.6809 40.0399 26.5138C38.0452 26.5612 36.3457 26.1419 34.9946 25.2664ZM23.8909 35.4378C21.8191 35.4088 20.2074 33.8845 19.0824 31.6904H28.6994C27.5771 33.8845 25.9654 35.4088 23.8909 35.4378ZM13.0053 25.2664C11.6542 26.1419 9.95474 26.5612 7.96006 26.5138C8.00528 24.6809 8.44145 23.1303 9.26059 21.8777C12.0957 21.8592 14.5505 20.8176 16.5186 19.5174C16.3617 20.0106 16.2393 20.5301 16.1516 21.0813C15.6037 22.5818 14.6542 24.1957 13.0053 25.2664ZM11.6888 12.2179C15.351 12.2179 18.6462 13.8344 20.1914 14.7311C20.0744 14.8787 19.9361 15.0422 19.7872 15.2163C19.1994 15.5697 18.6648 16.0021 18.2021 16.5138C17.9175 16.8276 17.6649 17.1678 17.4335 17.529C15.4095 19.2089 12.5824 20.8281 9.19145 20.8281C6.67283 20.8281 4.10634 19.9236 1.55581 18.1356C4.21272 14.2063 7.61964 12.2179 11.6888 12.2179ZM23.8909 4.22736C26.6409 4.22736 28.8776 6.44255 28.8776 9.16934C28.8776 11.8935 26.6409 14.1113 23.8909 14.1113C21.1436 14.1113 18.9069 11.8935 18.9069 9.16934C18.9069 6.44255 21.1436 4.22736 23.8909 4.22736ZM17.6781 19.8972C17.9228 19.1219 18.2579 18.4309 18.6835 17.8402C19.226 17.355 19.7021 16.8777 20.1063 16.4399C21.1595 15.7147 22.4601 15.3218 23.8909 15.3112C25.8218 15.3244 27.5212 16.0364 28.6808 17.3154C29.3111 18.0116 29.7872 18.8819 30.1063 19.8972H17.6781ZM17.5133 26.7933H30.2686C30.0399 28.0881 29.6968 29.3487 29.242 30.4932H18.5425C18.0877 29.3487 17.742 28.0881 17.5133 26.7933ZM30.4813 25.3112C30.4707 25.4062 30.4601 25.5011 30.4494 25.596H17.3351C17.3244 25.5011 17.3111 25.4062 17.3031 25.3112C17.1329 23.75 17.1622 22.3365 17.3829 21.0971H30.4016C30.6223 22.3365 30.6516 23.75 30.4813 25.3112ZM47.867 18.3967L47.843 18.3571C44.4282 12.8007 40.1542 11.1683 36.3111 11.1683C33.2819 11.1683 30.5212 12.1809 28.6595 13.0881C29.5505 12.0227 30.0877 10.6567 30.0877 9.16934C30.0877 5.78327 27.3085 3.02747 23.8909 3.02747C20.476 3.02747 17.6968 5.78327 17.6968 9.16934C17.6968 10.5802 18.1808 11.883 18.992 12.922C17.1436 12.0623 14.5345 11.1683 11.6888 11.1683C7.8457 11.1683 3.57177 12.8007 0.156871 18.3571L0.132935 18.3967L0.170169 18.423C3.01591 20.6092 5.67815 21.6008 8.09304 21.8249C7.27123 23.3123 6.88294 25.1161 6.94145 27.2311L6.94942 27.4684L7.18879 27.4895C9.71804 27.6794 11.8643 27.2152 13.5638 26.1129C14.5984 25.4431 15.3856 24.5939 15.9867 23.6841C15.9973 24.2485 16.0319 24.8313 16.0984 25.4378C16.7526 31.4584 19.242 35.5881 22.5984 36.461C22.7021 37.1308 23.0133 38.46 23.8909 39.5122C23.8909 39.5122 24.9441 38.1857 25.2234 36.4531C28.5585 35.5591 31.0319 31.4373 31.6861 25.4378C31.7633 24.7126 31.8032 24.0164 31.8058 23.3518C32.4282 24.3856 33.2792 25.364 34.4361 26.1129C36.1356 27.2152 38.2819 27.6794 40.8111 27.4895L41.0505 27.4684L41.0585 27.2311C41.117 25.1161 40.7287 23.3123 39.9069 21.8249C42.3218 21.6008 44.984 20.6092 47.8297 18.423L47.867 18.3967Z" fill="#1B1B1B"/>
</g>
<mask id="mask1_620_108" style="mask-type:luminance" maskUnits="userSpaceOnUse" x="19" y="0" width="3" height="3">
<path d="M19.7446 0.237305H21.7872V2.70039H19.7446V0.237305Z" fill="white"/>
</mask>
<g mask="url(#mask1_620_108)">
<path d="M20.8165 2.0622C21.3165 2.0622 21.7234 1.65871 21.7234 1.16293C21.7234 0.667153 21.3165 0.263672 20.8165 0.263672C20.3165 0.263672 19.9095 0.667153 19.9095 1.16293C19.9095 1.65871 20.3165 2.0622 20.8165 2.0622Z" fill="#1B1B1B"/>
</g>
<mask id="mask2_620_108" style="mask-type:luminance" maskUnits="userSpaceOnUse" x="25" y="0" width="3" height="3">
<path d="M25.8723 0.237305H27.9149V2.70039H25.8723V0.237305Z" fill="white"/>
</mask>
<g mask="url(#mask2_620_108)">
<path d="M26.8325 2.03851C27.3325 2.03851 27.7367 1.63503 27.7367 1.13925C27.7367 0.643471 27.3325 0.23999 26.8325 0.23999C26.3325 0.23999 25.9255 0.643471 25.9255 1.13925C25.9255 1.63503 26.3325 2.03851 26.8325 2.03851Z" fill="#1B1B1B"/>
</g>
</g>
<defs>
<clipPath id="clip0_620_108">
<rect width="48" height="40" fill="white"/>
</clipPath>
</defs>
</svg>
