<svg width="156" height="40" viewBox="0 0 156 40" fill="none" xmlns="http://www.w3.org/2000/svg">
<g clip-path="url(#clip0_619_288)">
<path fill-rule="evenodd" clip-rule="evenodd" d="M11.7293 4.35588C13.3861 1.42941 15.8082 0 17.8374 0C29.4435 0 23.0716 17.6765 9.89662 17.6765C9.19309 17.6738 8.49092 17.6138 7.79707 17.4971L6.76489 19.3176C4.55684 23.1029 5.02015 25.6382 7.54782 25.6382C10.4303 25.6382 12.6735 23.1765 14.6323 19.7118L15.0253 19.0676H18.7259L14.0341 27.1382C16.9518 25.8912 19.5528 23.6088 22.6141 20.0794L22.8634 19.7853C23.4432 20.0654 23.9262 20.513 24.2504 21.0706C20.192 25.7765 16.4181 28.4235 12.5738 29.6412L9.72654 34.5353C7.03759 39.1176 1.60105 38.3529 1.60105 34.7824C1.60105 31.9971 4.70053 29.9618 9.72068 28.4265L10.6795 26.7471C9.48105 27.5252 8.08408 27.9399 6.65639 27.9412C1.42511 27.9412 0.961805 22.9412 3.55985 18.4265L4.66534 16.4971C1.67436 14.9265 0 12.0588 0 9.11765C0 6.61765 1.17293 4.08235 3.81203 2.19118L5.02308 4.36765C3.54583 5.46521 2.66412 7.19153 2.6391 9.03529C2.66417 11.2843 3.94413 13.3293 5.95263 14.3294L11.7293 4.35588ZM6.6212 33.9235L8.29556 30.9235C5.44827 32.0324 4.59203 33.1382 4.59203 34.1029C4.59203 35.0676 5.83827 35.3176 6.6212 33.9235ZM17.8374 3.21471C23.7108 3.21471 19.5733 15.2118 9.89662 15.2118H9.14887L14.4916 5.92647C15.5941 4.03529 16.8052 3.21471 17.8374 3.21471Z" fill="#1B1B1B"/>
<path d="M31.0827 15.8206C31.4651 15.1434 31.3792 14.2978 30.8687 13.7118L30.3702 13.1059C27.4144 17.1412 26.0274 18.9883 24.2475 21.0677C23.7161 20.7253 23.2503 20.2899 22.8722 19.7824C25.2796 16.9265 27.4847 13.7853 29.1239 11.4706L28.8043 11.0442C27.4847 9.32947 27.6636 7.22064 29.7632 5.32947L31.6868 7.43535C30.939 8.15006 30.939 8.90594 31.4727 9.57947L33.5254 12.0795C34.7364 13.5501 35.3434 14.8648 34.062 17.1148L30.3702 23.603C29.5139 25.0736 29.9772 25.6383 30.7983 25.6383C32.4345 25.6383 35.0326 23.1765 37.7039 20.0677L37.9532 19.7736C38.5341 20.0532 39.0182 20.5008 39.3431 21.0589C36.2788 24.6412 32.7541 27.9412 29.6928 27.9412C26.7018 27.9412 25.5875 25.4059 27.1651 22.6471L31.0827 15.8206Z" fill="#1B1B1B"/>
<path fill-rule="evenodd" clip-rule="evenodd" d="M56.8227 21.0677C56.4986 20.5101 56.0154 20.0625 55.4357 19.7824L55.1864 20.0736C52.5151 23.1824 49.917 25.6442 48.2778 25.6442C47.4597 25.6442 46.9964 25.0795 47.8497 23.6089L53.8317 13.1118H51.7321C51.8729 11.5412 50.2718 9.36182 47.8497 9.36182C45.8587 9.36182 43.0818 10.9324 41.513 13.6471L36.3169 22.6471C34.7393 25.4059 35.8536 27.9412 38.8445 27.9412C40.34 27.9412 42.1903 26.9824 43.9703 25.5118C44.1491 26.9412 45.2869 27.9412 47.1753 27.9412C50.2366 27.9412 53.7613 24.6412 56.8227 21.0677ZM39.9471 25.6412C39.129 25.6412 38.6657 25.0765 39.519 23.6059L44.6828 14.5736C46.6768 11.1089 50.6296 12.0001 48.8115 15.3589L45.9291 20.4295C43.6858 23.9648 41.4778 25.6412 39.9471 25.6412Z" fill="#1B1B1B"/>
<path d="M53.8318 24.9265L56.1483 23.7118C56.1483 23.7118 56.6468 25.0677 57.9077 25.0677C61.4265 25.0677 60.6465 18.1412 62.1068 14.2853C60.7902 16.0324 58.9399 18.6412 56.8286 21.0677C56.2935 20.7256 55.8237 20.2903 55.4416 19.7824C58.7874 15.8559 62.1332 11 63.6522 8.90002L66.4291 10.4C64.1507 15.15 64.3999 20.5765 63.227 24.1118C64.879 22.9673 66.3745 21.6107 67.6753 20.0765L67.9246 19.7824C68.5471 19.9963 69.0515 20.4627 69.3145 21.0677C66.5376 24.3177 62.7989 27.3177 59.0249 27.8324C58.9898 27.8324 58.9546 27.8677 58.9194 27.8677C58.5769 27.9096 58.2323 27.9342 57.8872 27.9412C55.9991 28.011 54.3144 26.7589 53.8318 24.9265Z" fill="#1B1B1B"/>
<path d="M66.3293 24.9265L68.643 23.7118C68.643 23.7118 69.1414 25.0677 70.3877 25.0677C73.9065 25.0677 73.1294 18.1412 74.5897 14.2853C73.2731 16.0324 71.4199 18.6412 69.3115 21.0677C68.7767 20.7256 68.3069 20.2903 67.9245 19.7824C71.2703 15.8559 74.6161 11 76.1351 8.90002L78.912 10.4C76.6336 15.15 76.8828 20.5765 75.7099 24.1118C77.3614 22.9665 78.8568 21.61 80.1582 20.0765L80.4075 19.7824C81.0356 19.9928 81.5458 20.4596 81.8121 21.0677C79.0351 24.3177 75.2964 27.3177 71.5225 27.8324C71.4873 27.8324 71.4521 27.8677 71.414 27.8677C71.0695 27.91 70.7232 27.9346 70.376 27.9412C68.4908 28.0079 66.8105 26.7562 66.3293 24.9265Z" fill="#1B1B1B"/>
<path d="M89.5798 19.7823C90.1595 20.0624 90.6427 20.51 90.9668 21.0676C87.9054 24.6411 84.3807 27.9411 81.3194 27.9411C78.3284 27.9411 77.2141 25.4058 78.7917 22.647L90.7527 1.85583H94.4562L81.9968 23.6029C81.1405 25.0735 81.6038 25.6382 82.4219 25.6382C84.0611 25.6382 86.6592 23.1764 89.3305 20.0676L89.5798 19.7823Z" fill="#1B1B1B"/>
<path fill-rule="evenodd" clip-rule="evenodd" d="M108.449 21.0677C108.124 20.5096 107.64 20.062 107.059 19.7824L106.81 20.0736C104.142 23.1824 101.541 25.6442 99.9046 25.6442C99.0864 25.6442 98.6231 25.0795 99.4764 23.6089L105.458 13.1118H103.356C103.5 11.5412 101.899 9.36182 99.4764 9.36182C97.4825 9.36182 94.7055 10.9324 93.1397 13.6471L87.9407 22.6471C86.3631 25.4059 87.4773 27.9412 90.4683 27.9412C91.9638 27.9412 93.817 26.9824 95.597 25.5118C95.7729 26.9412 96.9136 27.9412 98.7991 27.9412C101.863 27.9412 105.388 24.6412 108.449 21.0677ZM91.5738 25.6412C90.7528 25.6412 90.2924 25.0765 91.1457 23.6059L96.3066 14.5736C98.3006 11.1089 102.253 12.0001 100.438 15.3589L97.5528 20.4295C95.3125 23.9648 93.1045 25.6412 91.5738 25.6412Z" fill="#1B1B1B"/>
<path d="M124.542 19.7823C125.122 20.0624 125.605 20.51 125.929 21.0676C122.865 24.6412 119.346 27.9412 116.282 27.9412C113.291 27.9412 112.176 25.4059 113.754 22.647L118.56 14.2529C120.161 11.5029 117.633 10.5764 111.974 17.6823L106.312 27.5676H102.576L112.863 9.70586H116.566L115.179 12.1353C117.029 10.2059 118.698 9.34998 120.305 9.34998C122.357 9.34998 123.9 11.3853 122.299 14.2059L116.959 23.6029C116.103 25.0735 116.566 25.6382 117.384 25.6382C119.023 25.6382 121.621 23.1764 124.293 20.0676L124.542 19.7823Z" fill="#1B1B1B"/>
<path fill-rule="evenodd" clip-rule="evenodd" d="M143.412 21.0676C143.087 20.5095 142.602 20.0619 142.022 19.7823L141.775 20.0676C139.104 23.1764 136.506 25.6382 134.867 25.6382C134.049 25.6382 133.585 25.0735 134.439 23.6029L146.971 1.85583H143.268L137.82 11.2852C137.097 10.1039 135.82 9.37751 134.439 9.36172C132.445 9.36172 129.668 10.9323 128.102 13.647L122.906 22.647C121.328 25.4058 122.442 27.9411 125.433 27.9411C126.929 27.9411 128.779 26.9823 130.559 25.5117C130.738 26.9411 131.876 27.9411 133.764 27.9411C136.826 27.9411 140.35 24.6411 143.412 21.0676ZM126.536 25.6411C125.718 25.6411 125.255 25.0764 126.108 23.6058L131.272 14.5735C133.266 11.1088 137.216 12 135.4 15.3588H135.436L132.623 20.2147C130.38 23.8941 128.102 25.6411 126.536 25.6411Z" fill="#1B1B1B"/>
<path d="M140.421 24.9265L142.737 23.7118C142.737 23.7118 143.236 25.0677 144.479 25.0677C147.998 25.0677 147.221 18.1412 148.681 14.2853C147.364 16.0324 145.514 18.6412 143.403 21.0677C142.868 20.7256 142.398 20.2903 142.016 19.7824C145.362 15.8559 148.707 11 150.226 8.90002L153.003 10.4C150.725 15.15 150.974 20.5765 149.801 24.1118C151.461 22.966 152.964 21.6063 154.27 20.0677L154.519 19.7736C155.142 19.9875 155.646 20.4538 155.909 21.0588C153.132 24.3088 149.393 27.3088 145.62 27.8236C145.584 27.8236 145.549 27.8588 145.514 27.8588C145.17 27.9009 144.825 27.9254 144.479 27.9324C142.592 28.0057 140.906 26.7571 140.421 24.9265Z" fill="#1B1B1B"/>
<path d="M40.9412 39.1676C40.3598 38.5923 40.1838 37.7209 40.497 36.9641C40.8102 36.2073 41.5494 35.7168 42.3664 35.7235C42.9044 35.7135 43.427 35.9041 43.8325 36.2588L43.2988 36.847C43.0326 36.6341 42.7009 36.5209 42.3605 36.5265C42.0391 36.5094 41.7257 36.6297 41.4972 36.857C41.2688 37.0844 41.1468 37.3982 41.1612 37.7206C41.1471 38.0482 41.2679 38.3673 41.4955 38.6029C41.73 38.8309 42.0491 38.9503 42.3752 38.9323C42.6095 38.9473 42.8426 38.8876 43.0408 38.7618V38.0735H42.5188V37.3235H43.8531V39.2C43.4487 39.557 42.9256 39.7491 42.3869 39.7382C41.847 39.7573 41.3233 39.5509 40.9412 39.1676Z" fill="#1B1B1B"/>
<path fill-rule="evenodd" clip-rule="evenodd" d="M49.1547 39.7559L48.1548 37.9912C48.6424 37.8559 48.9611 37.387 48.9084 36.8823C48.9084 36.1088 48.4421 35.7235 47.5038 35.7235H45.7444V39.7559H46.5449V38.0912H47.278L48.2369 39.7559H49.1547ZM47.668 37.3323H46.5449V36.4765H47.6739C47.9935 36.4882 48.1724 36.6029 48.1636 36.8912C48.1548 37.1794 47.9905 37.3323 47.668 37.3323Z" fill="#1B1B1B"/>
<path fill-rule="evenodd" clip-rule="evenodd" d="M50.7622 36.5653C50.2223 37.3877 50.339 38.4786 51.0402 39.1677C51.4149 39.5548 51.9333 39.7677 52.4711 39.7559C53.4529 39.7586 54.2992 39.0636 54.49 38.0977C54.6812 37.1318 54.1637 36.1656 53.2552 35.7921C52.3468 35.4186 51.3017 35.7427 50.7622 36.5653ZM53.3508 38.6324C53.1248 38.8765 52.8031 39.0089 52.4711 38.9942C52.1462 39.003 51.8334 38.8712 51.612 38.6324C51.166 38.1168 51.166 37.3509 51.612 36.8353C51.8424 36.6039 52.1553 36.4739 52.4814 36.4739C52.8075 36.4739 53.1204 36.6039 53.3508 36.8353C53.7971 37.3509 53.7971 38.1168 53.3508 38.6324Z" fill="#1B1B1B"/>
<path d="M58.6056 36.7971L57.8021 39.7383H57.0016L55.9283 35.7147H56.7846L57.4825 38.45L58.2038 35.7147H59.0308L59.7257 38.45L60.4236 35.7147H61.2857L60.2183 39.7383H59.4149L58.6056 36.7971Z" fill="#1B1B1B"/>
<path d="M62.9659 39.747V35.7235H63.2328L65.7458 38.2441V35.7235H66.5639V39.747H66.2707L63.787 37.2529V39.747H62.9659Z" fill="#1B1B1B"/>
<path d="M71.4404 35.7206H72.241V39.7471H71.4404V35.7206Z" fill="#1B1B1B"/>
<path d="M74.1411 39.747V35.7235H74.408L76.921 38.2441V35.7235H77.7215V39.747H77.4283L74.9416 37.2529V39.747H74.1411Z" fill="#1B1B1B"/>
<path d="M82.985 39.1677C82.4032 38.5924 82.2276 37.7209 82.5408 36.9642C82.8539 36.2074 83.5932 35.7168 84.4101 35.7236C84.9479 35.7145 85.4702 35.905 85.8763 36.2589L85.3397 36.8471C85.0734 36.6342 84.7418 36.5209 84.4013 36.5265C84.0802 36.5115 83.768 36.6321 83.5398 36.8592C83.312 37.0862 83.1894 37.3986 83.202 37.7206C83.1906 38.048 83.3111 38.3659 83.5363 38.603C83.7709 38.8309 84.0899 38.9503 84.416 38.9324C84.7544 38.94 85.0846 38.8274 85.3485 38.6148L85.8851 39.203C85.4801 39.5595 84.9573 39.7512 84.4189 39.7412C83.8826 39.7565 83.3639 39.5489 82.985 39.1677Z" fill="#1B1B1B"/>
<path fill-rule="evenodd" clip-rule="evenodd" d="M89.2455 35.7235L87.6415 39.747L88.4948 39.7441L88.7352 39.1265H90.5533L90.7937 39.7441H91.647L90.046 35.7235H89.2455ZM89.0578 38.3323L89.6677 36.8059L90.26 38.3323H89.0578Z" fill="#1B1B1B"/>
<path d="M93.3419 39.7471V35.7235H93.6088L96.1218 38.2353V35.7147H96.9252V39.7383H96.632L94.1454 37.2441V39.7383L93.3419 39.7471Z" fill="#1B1B1B"/>
<path fill-rule="evenodd" clip-rule="evenodd" d="M100.242 35.7235L98.6406 39.747L99.4939 39.7441L99.7344 39.1265H101.552L101.793 39.7441H102.646L101.045 35.7235H100.242ZM100.057 38.3323L100.667 36.8059L101.259 38.3323H100.057Z" fill="#1B1B1B"/>
<path fill-rule="evenodd" clip-rule="evenodd" d="M104.341 35.7206V39.7471H105.886C107.134 39.7491 107.757 39.0785 107.757 37.7353C107.757 36.3921 107.134 35.7206 105.886 35.7206H104.341ZM106.954 37.7353C106.954 38.5382 106.596 38.9441 105.886 38.9441H105.142V36.5294H105.886C106.596 36.5294 106.954 36.9323 106.954 37.7353Z" fill="#1B1B1B"/>
<path fill-rule="evenodd" clip-rule="evenodd" d="M111.106 35.7235L109.502 39.747L110.358 39.7441L110.599 39.1265H112.417L112.657 39.7441H113.508L111.907 35.7235H111.106ZM110.918 38.3323L111.528 36.8059L112.121 38.3323H110.918Z" fill="#1B1B1B"/>
</g>
<defs>
<clipPath id="clip0_619_288">
<rect width="156" height="40" fill="white"/>
</clipPath>
</defs>
</svg>
