<svg width="45" height="40" viewBox="0 0 45 40" fill="none" xmlns="http://www.w3.org/2000/svg">
<g clip-path="url(#clip0_619_189)">
<path fill-rule="evenodd" clip-rule="evenodd" d="M2.39369 36.0306C1.76608 35.8701 1.16765 35.7241 1.16765 35.2716C1.16765 34.8484 1.56174 34.5565 2.13097 34.5565C2.74399 34.5565 3.29862 34.7754 3.67811 35.1841L3.7219 35.2425L4.27654 34.5273L4.23275 34.4835C3.7219 33.958 3.0359 33.6953 2.18935 33.6953C1.0217 33.6953 0.175148 34.3813 0.175148 35.33C0.175148 36.4832 1.24063 36.7604 2.10178 36.9941H2.13097C2.81697 37.1691 3.41539 37.3296 3.41539 37.8551C3.41539 38.2346 3.10888 38.6433 2.27693 38.6433C1.40119 38.6433 0.84655 38.1762 0.583827 37.8843L0.54004 37.8259L0 38.5557L0.0291914 38.5995C0.554636 39.1833 1.32821 39.4898 2.24774 39.4898C3.82407 39.4898 4.3933 38.5995 4.3933 37.7675C4.3933 36.5707 3.28403 36.2643 2.39369 36.0306Z" fill="#1B1B1B"/>
<path fill-rule="evenodd" clip-rule="evenodd" d="M10.9468 37.169C10.9468 38.1178 10.436 38.6578 9.53102 38.6578C8.62609 38.6578 8.10064 38.1178 8.10064 37.169V33.7828H7.13733V37.1982C7.13733 38.6724 7.99847 39.5191 9.51643 39.5191C11.0198 39.5191 11.8955 38.6725 11.8955 37.1982V33.7974H10.9322V37.169H10.9468Z" fill="#1B1B1B"/>
<path fill-rule="evenodd" clip-rule="evenodd" d="M18.5365 37.7092L15.632 33.7831H14.6979V39.4023H15.6466V35.3739L18.5949 39.4023H19.4853V33.7831H18.5365V37.7092Z" fill="#1B1B1B"/>
<path fill-rule="evenodd" clip-rule="evenodd" d="M24.4186 38.5556H23.3385V34.6295H24.4186C25.6008 34.6295 26.3598 35.4029 26.3598 36.5999C26.3598 37.7676 25.5716 38.5556 24.4186 38.5556ZM24.4186 33.783H22.3898V39.4168H24.4186C26.1409 39.4168 27.3377 38.2637 27.3377 36.5999C27.3231 34.9359 26.1263 33.783 24.4186 33.783Z" fill="#1B1B1B"/>
<path fill-rule="evenodd" clip-rule="evenodd" d="M29.7606 39.4168H30.7093V33.7828H29.7606V39.4168Z" fill="#1B1B1B"/>
<path fill-rule="evenodd" clip-rule="evenodd" d="M36.7081 37.4173H34.7377L35.7156 34.863L36.7081 37.4173ZM35.1609 33.7831L32.9279 39.4169H34.0079L34.4604 38.2784H37.0146L37.4671 39.4169H38.5472L36.3141 33.7831H35.1609Z" fill="#1B1B1B"/>
<path fill-rule="evenodd" clip-rule="evenodd" d="M41.8166 38.5556V33.783H40.8679V39.4022H44.3125V38.5556H41.8166Z" fill="#1B1B1B"/>
<path fill-rule="evenodd" clip-rule="evenodd" d="M6.22968 13.1406C6.37038 17.0557 7.93299 20.7401 10.6701 23.5761C13.395 26.3993 17.0014 28.0892 20.8893 28.3798C20.5183 24.0147 18.986 20.3017 16.437 17.6077C13.8488 14.8726 10.3305 13.3356 6.22968 13.1406ZM22.2452 29.7076L21.5531 29.6861C17.0655 29.547 12.8761 27.6901 9.75643 24.4579C6.63675 21.2257 4.92978 16.973 4.94963 12.4832L4.95255 11.843L5.59272 11.8512C15.1128 11.9731 21.6342 18.7107 22.2068 29.0163L22.2452 29.7076Z" fill="#1B1B1B"/>
<path fill-rule="evenodd" clip-rule="evenodd" d="M38.6805 11.8516C38.4812 11.8593 33.9669 12.0572 30.5499 13.9281C30.6115 14.3931 30.6531 14.8591 30.6715 15.3259L30.7435 15.2817C33.1906 13.7772 36.5906 13.3086 38.0359 13.1725C37.6802 18.7241 35.3913 22.9351 31.2253 25.6957C29.2245 27.0216 27.2242 27.6937 25.967 28.0163C28.0825 24.023 28.9183 20.3238 29.0276 17.0662C29.0248 17.0659 29.0221 17.0653 29.0193 17.065C29.0256 16.9906 29.0296 16.9164 29.0346 16.8421C29.1114 13.5832 28.4641 10.7754 27.6517 8.57278C25.7906 3.52559 22.7636 0.558577 22.6356 0.43466L22.1863 0L21.7448 0.442395C17.0139 5.18074 15.7918 11.1545 15.5081 13.1134C15.9154 13.3683 16.3099 13.6405 16.69 13.9317L16.6957 13.8624C16.7015 13.7931 17.3097 7.05862 22.1876 1.81264C23.0766 2.81259 25.1294 5.37632 26.4786 9.06232C27.5028 11.8596 27.9281 14.7513 27.743 17.6571C27.5114 21.296 26.3157 24.9759 24.1894 28.5951L23.5401 29.7006L24.8128 29.5471C24.9564 29.5299 28.3677 29.0967 31.8812 26.7843C35.135 24.6428 39.0703 20.4277 39.3397 12.5075L39.3629 11.825L38.6805 11.8516Z" fill="#1B1B1B"/>
</g>
<defs>
<clipPath id="clip0_619_189">
<rect width="44.4444" height="40" fill="white"/>
</clipPath>
</defs>
</svg>
