<svg width="120" height="40" viewBox="0 0 120 40" fill="none" xmlns="http://www.w3.org/2000/svg">
<g clip-path="url(#clip0_619_225)">
<path d="M25.5829 0.571411L17.6629 20.4286L9.78858 0.571411H0.577148L14.2914 33.1943H21.04L34.7943 0.571411H25.5829Z" fill="#1B1B1B"/>
<path d="M27.8686 9.35425L24.1943 39.2285H39.5772L40.0972 35.1028H29.1315L30.3658 25.0457H41.3372L41.8001 21.2114H30.8286L31.7772 13.4742H42.7486L43.2515 9.35425H27.8686Z" fill="#1B1B1B"/>
<path d="M42.5942 31.6114V2.75427H55.6171C58.6457 2.75427 61.8057 3.10284 64.4457 5.73713C65.9142 7.2057 67.1714 9.41142 67.1714 12.8343C67.1714 15.3886 66.3942 16.9886 65.5714 17.9828C64.7085 19.0628 63.28 19.9314 61.5885 20.2743V20.5314C62.1485 20.8343 62.7142 21.2686 63.1028 21.8743L69.5942 31.6114H57.5257L53.3714 23.1771C53.24 22.8743 53.1142 22.7428 52.9828 22.2686L52.8114 22.3543V31.6114H42.5942ZM52.8 15.6057H54.0114C54.6171 15.6057 55.5714 15.52 56.2171 14.9543C56.5657 14.6514 56.9542 14.0914 56.9542 13.1828C56.9542 12.5314 56.7828 11.8857 56.3942 11.4514C56.0457 11.0628 55.4857 10.6743 54.6228 10.6743H52.8057L52.8 15.6057Z" fill="#1B1B1B"/>
<path d="M74.6228 14.1085C73.6686 13.3714 72.6743 12.8114 71.4628 12.8114C69.2571 12.8114 67.96 14.5828 67.96 16.6628C67.96 21.9828 76.0057 23.3257 76.0057 31.2857C76.0057 35.3085 73.6286 38.9428 69.2971 38.9428C67.6971 38.9428 66.3543 38.5542 65.0571 37.56V33.7085C66.2286 34.5714 67.3486 35.2228 68.8228 35.2228C71.1143 35.2228 72.24 33.4057 72.24 31.2857C72.24 25.3142 64.1486 24.4057 64.1486 16.7085C64.1486 12.6 66.2686 9.35425 70.68 9.35425C72.28 9.35425 73.2343 9.57139 74.6628 10.3085L74.6228 14.1085Z" fill="#1B1B1B"/>
<path d="M89.2628 1.86853C86.4914 19.5657 86.1943 20.8628 86.1943 22.3771C86.1943 24.0628 86.9714 24.8457 88.8743 24.8457C89.7371 24.8457 90.6057 24.7142 91.3428 24.0685C91.9943 23.5085 92.5085 22.64 92.8571 20.3485L95.7543 1.87424H107.606L104.577 21.2114C103.194 29.9942 97.0914 35.0114 87.2685 35.0114C78.6571 35.0114 74.1143 31.2057 74.1143 24.28C74.1143 22.0285 74.4628 20.7771 77.4 1.86853H89.2628Z" fill="#1B1B1B"/>
<path d="M115.446 16.4972C113.76 14.2457 111.771 14.0286 110.731 14.0286C107.703 14.0286 106.754 15.9315 106.754 17.4057C106.754 18.0972 106.971 18.7486 107.663 19.3543C108.354 20.0057 109.309 20.3486 111.126 21C113.377 21.7772 115.497 22.56 116.966 23.8972C118.263 25.0629 119.434 27.0115 119.434 29.9543C119.434 35.5772 115.366 39.4286 109.394 39.4286C104.074 39.4286 100.96 36.1829 99.4457 33.9772L103.126 30.4743C104.509 33.2857 107.149 34.3257 109.183 34.3257C111.737 34.3257 113.64 32.7657 113.64 30.3486C113.64 29.3086 113.291 28.4857 112.514 27.7543C111.434 26.76 109.703 26.1943 108.057 25.6343C106.543 25.1143 104.726 24.4229 103.257 23.1257C102.303 22.3029 100.966 20.7029 100.966 17.76C100.966 13.52 103.823 9.28003 110.223 9.28003C112.04 9.28003 115.457 9.6286 118.4 12.6572L115.446 16.4972Z" fill="#1B1B1B"/>
</g>
<defs>
<clipPath id="clip0_619_225">
<rect width="120" height="40" fill="white"/>
</clipPath>
</defs>
</svg>
